<mxfile host="app.diagrams.net" agent="Mozilla/5.0 (Windows NT 10.0; Win64; x64) AppleWebKit/537.36 (KHTML, like Gecko) Chrome/131.0.0.0 Safari/537.36" version="25.0.1">
  <diagram name="Page-1" id="uigpwwjzt3T1p5udmavG">
    <mxGraphModel dx="1059" dy="595" grid="1" gridSize="10" guides="1" tooltips="1" connect="1" arrows="1" fold="1" page="1" pageScale="1" pageWidth="827" pageHeight="1169" math="0" shadow="0">
      <root>
        <mxCell id="0" />
        <mxCell id="1" parent="0" />
        <mxCell id="5m87ZB2yBZsC5MAy124T-28" value="Application" style="rounded=0;whiteSpace=wrap;html=1;verticalAlign=top;" vertex="1" parent="1">
          <mxGeometry x="180" y="150" width="409" height="420" as="geometry" />
        </mxCell>
        <mxCell id="5m87ZB2yBZsC5MAy124T-49" value="INSPECT&lt;div&gt;collector&lt;/div&gt;" style="rounded=1;whiteSpace=wrap;html=1;fillColor=#d5e8d4;strokeColor=#82b366;" vertex="1" parent="1">
          <mxGeometry x="199.5" y="390" width="370" height="158" as="geometry" />
        </mxCell>
        <mxCell id="5m87ZB2yBZsC5MAy124T-2" value="Connector" style="whiteSpace=wrap;html=1;aspect=fixed;rounded=0;" vertex="1" parent="1">
          <mxGeometry x="225" y="460" width="90" height="90" as="geometry" />
        </mxCell>
        <mxCell id="5m87ZB2yBZsC5MAy124T-3" value="Service" style="ellipse;whiteSpace=wrap;html=1;rounded=0;" vertex="1" parent="1">
          <mxGeometry x="212.75" y="280" width="120" height="80" as="geometry" />
        </mxCell>
        <mxCell id="5m87ZB2yBZsC5MAy124T-6" value="start" style="text;html=1;align=center;verticalAlign=middle;whiteSpace=wrap;rounded=0;" vertex="1" parent="1">
          <mxGeometry x="217.25" y="442" width="45" height="20" as="geometry" />
        </mxCell>
        <mxCell id="5m87ZB2yBZsC5MAy124T-7" value="end" style="text;html=1;align=center;verticalAlign=middle;whiteSpace=wrap;rounded=0;" vertex="1" parent="1">
          <mxGeometry x="287.25" y="442" width="45" height="20" as="geometry" />
        </mxCell>
        <mxCell id="5m87ZB2yBZsC5MAy124T-8" value="params" style="text;html=1;align=center;verticalAlign=middle;whiteSpace=wrap;rounded=0;" vertex="1" parent="1">
          <mxGeometry x="224" y="390" width="52.5" height="30" as="geometry" />
        </mxCell>
        <mxCell id="5m87ZB2yBZsC5MAy124T-10" value="&lt;span style=&quot;background-color: initial;&quot;&gt;result&lt;/span&gt;&lt;div&gt;error&lt;/div&gt;" style="text;html=1;align=left;verticalAlign=middle;whiteSpace=wrap;rounded=0;" vertex="1" parent="1">
          <mxGeometry x="281.75" y="407" width="82.5" height="30" as="geometry" />
        </mxCell>
        <mxCell id="5m87ZB2yBZsC5MAy124T-15" value="" style="curved=1;endArrow=classic;html=1;rounded=0;exitX=0.25;exitY=0;exitDx=0;exitDy=0;entryX=0;entryY=0;entryDx=0;entryDy=0;fillColor=#d5e8d4;strokeColor=#82b366;" edge="1" parent="1" target="5m87ZB2yBZsC5MAy124T-2">
          <mxGeometry width="50" height="50" relative="1" as="geometry">
            <mxPoint x="230.37499999999977" y="391.5" as="sourcePoint" />
            <mxPoint x="224.25" y="455" as="targetPoint" />
            <Array as="points">
              <mxPoint x="214" y="399.82" />
              <mxPoint x="245.25" y="439.82" />
              <mxPoint x="195" y="419.82" />
            </Array>
          </mxGeometry>
        </mxCell>
        <mxCell id="5m87ZB2yBZsC5MAy124T-37" value="" style="curved=1;endArrow=classic;html=1;rounded=0;exitX=1;exitY=0;exitDx=0;exitDy=0;entryX=0.75;entryY=0;entryDx=0;entryDy=0;fillColor=#d5e8d4;strokeColor=#82b366;" edge="1" parent="1" source="5m87ZB2yBZsC5MAy124T-2">
          <mxGeometry width="50" height="50" relative="1" as="geometry">
            <mxPoint x="321.38" y="460" as="sourcePoint" />
            <mxPoint x="309.625" y="391.5" as="targetPoint" />
            <Array as="points">
              <mxPoint x="333.63" y="455.18" />
              <mxPoint x="302.38" y="415.18" />
              <mxPoint x="352.63" y="435.18" />
            </Array>
          </mxGeometry>
        </mxCell>
        <mxCell id="5m87ZB2yBZsC5MAy124T-39" value="" style="endArrow=classic;html=1;exitX=0.5;exitY=1;exitDx=0;exitDy=0;entryX=0.25;entryY=0;entryDx=0;entryDy=0;" edge="1" parent="1" source="5m87ZB2yBZsC5MAy124T-3">
          <mxGeometry width="50" height="50" relative="1" as="geometry">
            <mxPoint x="62.75" y="470" as="sourcePoint" />
            <mxPoint x="230.37499999999977" y="391.5" as="targetPoint" />
          </mxGeometry>
        </mxCell>
        <mxCell id="5m87ZB2yBZsC5MAy124T-40" value="" style="endArrow=classic;html=1;exitX=0.5;exitY=1;exitDx=0;exitDy=0;entryX=0.313;entryY=-0.001;entryDx=0;entryDy=0;entryPerimeter=0;" edge="1" parent="1" source="5m87ZB2yBZsC5MAy124T-3">
          <mxGeometry width="50" height="50" relative="1" as="geometry">
            <mxPoint x="282.75" y="370" as="sourcePoint" />
            <mxPoint x="309.25" y="391.842" as="targetPoint" />
          </mxGeometry>
        </mxCell>
        <mxCell id="5m87ZB2yBZsC5MAy124T-42" value="Resource" style="ellipse;shape=cloud;whiteSpace=wrap;html=1;" vertex="1" parent="1">
          <mxGeometry x="212.75" y="580" width="141.5" height="100" as="geometry" />
        </mxCell>
        <mxCell id="5m87ZB2yBZsC5MAy124T-43" value="" style="endArrow=classic;startArrow=classic;html=1;entryX=0.5;entryY=1;entryDx=0;entryDy=0;exitX=0.4;exitY=0.1;exitDx=0;exitDy=0;exitPerimeter=0;" edge="1" parent="1" source="5m87ZB2yBZsC5MAy124T-42" target="5m87ZB2yBZsC5MAy124T-2">
          <mxGeometry width="50" height="50" relative="1" as="geometry">
            <mxPoint x="122.75" y="470" as="sourcePoint" />
            <mxPoint x="172.75" y="420" as="targetPoint" />
          </mxGeometry>
        </mxCell>
        <mxCell id="5m87ZB2yBZsC5MAy124T-51" value="Service" style="ellipse;whiteSpace=wrap;html=1;rounded=0;" vertex="1" parent="1">
          <mxGeometry x="426.75" y="280" width="120" height="80" as="geometry" />
        </mxCell>
        <mxCell id="5m87ZB2yBZsC5MAy124T-52" value="start" style="text;html=1;align=center;verticalAlign=middle;whiteSpace=wrap;rounded=0;" vertex="1" parent="1">
          <mxGeometry x="431.25" y="442" width="45" height="20" as="geometry" />
        </mxCell>
        <mxCell id="5m87ZB2yBZsC5MAy124T-53" value="end" style="text;html=1;align=center;verticalAlign=middle;whiteSpace=wrap;rounded=0;" vertex="1" parent="1">
          <mxGeometry x="501.25" y="442" width="45" height="20" as="geometry" />
        </mxCell>
        <mxCell id="5m87ZB2yBZsC5MAy124T-54" value="params" style="text;html=1;align=center;verticalAlign=middle;whiteSpace=wrap;rounded=0;" vertex="1" parent="1">
          <mxGeometry x="438" y="390" width="52.5" height="30" as="geometry" />
        </mxCell>
        <mxCell id="5m87ZB2yBZsC5MAy124T-55" value="&lt;span style=&quot;background-color: initial;&quot;&gt;result&lt;/span&gt;&lt;div&gt;error&lt;/div&gt;" style="text;html=1;align=left;verticalAlign=middle;whiteSpace=wrap;rounded=0;" vertex="1" parent="1">
          <mxGeometry x="495.75" y="407" width="82.5" height="30" as="geometry" />
        </mxCell>
        <mxCell id="5m87ZB2yBZsC5MAy124T-56" value="" style="curved=1;endArrow=classic;html=1;rounded=0;exitX=0.25;exitY=0;exitDx=0;exitDy=0;entryX=0;entryY=0;entryDx=0;entryDy=0;fillColor=#d5e8d4;strokeColor=#82b366;" edge="1" parent="1" target="5m87ZB2yBZsC5MAy124T-61">
          <mxGeometry width="50" height="50" relative="1" as="geometry">
            <mxPoint x="444.3749999999998" y="391.5" as="sourcePoint" />
            <mxPoint x="439" y="460" as="targetPoint" />
            <Array as="points">
              <mxPoint x="428" y="399.82" />
              <mxPoint x="459.25" y="439.82" />
              <mxPoint x="409" y="419.82" />
            </Array>
          </mxGeometry>
        </mxCell>
        <mxCell id="5m87ZB2yBZsC5MAy124T-57" value="" style="curved=1;endArrow=classic;html=1;rounded=0;exitX=1;exitY=0;exitDx=0;exitDy=0;entryX=0.75;entryY=0;entryDx=0;entryDy=0;fillColor=#d5e8d4;strokeColor=#82b366;" edge="1" parent="1" source="5m87ZB2yBZsC5MAy124T-61">
          <mxGeometry width="50" height="50" relative="1" as="geometry">
            <mxPoint x="529" y="460" as="sourcePoint" />
            <mxPoint x="523.625" y="391.5" as="targetPoint" />
            <Array as="points">
              <mxPoint x="547.63" y="455.18" />
              <mxPoint x="516.38" y="415.18" />
              <mxPoint x="566.63" y="435.18" />
            </Array>
          </mxGeometry>
        </mxCell>
        <mxCell id="5m87ZB2yBZsC5MAy124T-58" value="" style="endArrow=classic;html=1;exitX=0.5;exitY=1;exitDx=0;exitDy=0;entryX=0.25;entryY=0;entryDx=0;entryDy=0;" edge="1" parent="1" source="5m87ZB2yBZsC5MAy124T-51">
          <mxGeometry width="50" height="50" relative="1" as="geometry">
            <mxPoint x="276.75" y="470" as="sourcePoint" />
            <mxPoint x="444.3749999999998" y="391.5" as="targetPoint" />
          </mxGeometry>
        </mxCell>
        <mxCell id="5m87ZB2yBZsC5MAy124T-59" value="" style="endArrow=classic;html=1;exitX=0.5;exitY=1;exitDx=0;exitDy=0;entryX=0.313;entryY=-0.001;entryDx=0;entryDy=0;entryPerimeter=0;" edge="1" parent="1" source="5m87ZB2yBZsC5MAy124T-51">
          <mxGeometry width="50" height="50" relative="1" as="geometry">
            <mxPoint x="496.75" y="370" as="sourcePoint" />
            <mxPoint x="523.75" y="392" as="targetPoint" />
          </mxGeometry>
        </mxCell>
        <mxCell id="5m87ZB2yBZsC5MAy124T-61" value="Service" style="ellipse;whiteSpace=wrap;html=1;rounded=0;" vertex="1" parent="1">
          <mxGeometry x="426.25" y="460" width="120" height="80" as="geometry" />
        </mxCell>
        <mxCell id="5m87ZB2yBZsC5MAy124T-62" value="" style="html=1;verticalLabelPosition=bottom;align=center;labelBackgroundColor=#ffffff;verticalAlign=top;strokeWidth=2;strokeColor=#82b366;shadow=0;dashed=0;shape=mxgraph.ios7.icons.clock;fillColor=#d5e8d4;" vertex="1" parent="1">
          <mxGeometry x="476.25" y="442" width="30" height="30" as="geometry" />
        </mxCell>
        <mxCell id="5m87ZB2yBZsC5MAy124T-63" value="" style="html=1;verticalLabelPosition=bottom;align=center;labelBackgroundColor=#ffffff;verticalAlign=top;strokeWidth=2;strokeColor=#82b366;shadow=0;dashed=0;shape=mxgraph.ios7.icons.clock;fillColor=#d5e8d4;" vertex="1" parent="1">
          <mxGeometry x="257.75" y="442" width="30" height="30" as="geometry" />
        </mxCell>
      </root>
    </mxGraphModel>
  </diagram>
</mxfile>
